PathFileType  4	(X/Y/Z) C:\Users\antoi\Documents\MyRepositories\mobilecap\ResultsAnalysis
DataRate	CameraRate	NumFrames	NumMarkers	Units	OrigDataRate	OrigDataStartFrame	OrigNumFrames
100.0	100.0	5	51	mm	100.0	40	156
Frame#	Time	r_knee			r_shank_antsup			r_ankle			r_calc			r_5meta			r_toe			L_knee			L_shank_antsup			L_ankle			L_calc			L_5meta			L_toe			r_sh2			r_sh3			r_sh4			L_sh2			L_sh3			r_thigh1			r_thigh2			r_thigh3			r_thigh4			r_thigh5			L_thigh1			L_thigh2			L_thigh3			L_thigh4			r.ASIS			r.PSIS			L.ASIS			L.PSIS			C7			R_Shoulder			L_Shoulder			R_Sternum			L_Sternum			R_humerus			R_elbow_med			R_elbow_lat			R_forearm			R_wrist_radius			R_wrist_ulna			L_humerus			L_elbow_med			L_elbow_lat			L_forearm			L_wrist_radius			L_wrist_ulna			R_HJC			L_HJC			R_HJC_reg			L_HJC_reg			
		X1	Y1	Z1	X2	Y2	Z2	X3	Y3	Z3	X4	Y4	Z4	X5	Y5	Z5	X6	Y6	Z6	X7	Y7	Z7	X8	Y8	Z8	X9	Y9	Z9	X10	Y10	Z10	X11	Y11	Z11	X12	Y12	Z12	X13	Y13	Z13	X14	Y14	Z14	X15	Y15	Z15	X16	Y16	Z16	X17	Y17	Z17	X18	Y18	Z18	X19	Y19	Z19	X20	Y20	Z20	X21	Y21	Z21	X22	Y22	Z22	X23	Y23	Z23	X24	Y24	Z24	X25	Y25	Z25	X26	Y26	Z26	X27	Y27	Z27	X28	Y28	Z28	X29	Y29	Z29	X30	Y30	Z30	X31	Y31	Z31	X32	Y32	Z32	X33	Y33	Z33	X34	Y34	Z34	X35	Y35	Z35	X36	Y36	Z36	X37	Y37	Z37	X38	Y38	Z38	X39	Y39	Z39	X40	Y40	Z40	X41	Y41	Z41	X42	Y42	Z42	X43	Y43	Z43	X44	Y44	Z44	X45	Y45	Z45	X46	Y46	Z46	X47	Y47	Z47	X48	Y48	Z48	X49	Y49	Z49	X50	Y50	Z50	X51	Y51	Z51	

40	0.39000000	249.21332	471.32067	-129.91917	270.35139	353.91200	-157.03075	168.13979	94.87645	-189.52825	118.31838	58.66380	-241.78113	278.37830	39.13203	-158.26216	316.87923	54.38909	-201.25329	478.23181	497.41229	-401.33982	489.31532	384.16147	-365.81267	307.73717	150.87419	-404.34237	252.15864	125.76493	-357.22338	404.57062	68.60112	-429.96110	448.85978	73.77292	-379.07389	252.17181	245.83472	-178.29045	218.77797	351.35372	-101.92045	181.61305	248.42950	-131.18113	450.13002	427.28724	-430.23466	397.78159	319.94751	-449.97452	372.83491	767.81492	-136.74496	369.19416	655.23648	-143.01488	323.50607	632.78118	-97.66792	277.92695	767.32616	-78.16293	272.32215	652.27598	-82.15153	396.35708	776.27565	-434.91371	477.53865	668.66259	-421.22690	306.95573	715.87062	-464.51683	390.65971	603.83075	-443.62325	385.33116	932.13522	-164.36558	197.03290	979.22113	-223.75219	370.26125	923.78921	-406.18028	188.08176	970.88247	-339.96054	295.58161	1411.80527	-189.78254	341.17776	1332.27466	-51.47963	360.46640	1414.83104	-348.05620	409.81713	1331.59171	-184.14828	413.65835	1341.34010	-227.46201	341.71393	1197.67574	-6.41395	245.88378	1014.87143	-71.74483	270.47251	1013.81786	0.17285	336.33475	903.22349	5.95044	386.18916	813.70890	-3.10414	354.67723	798.06667	6.47938	331.18975	1294.70046	-454.26662	200.98124	1130.65546	-450.52294	214.14717	1159.22579	-518.14444	249.35056	1071.14361	-565.97289	265.04677	942.26318	-591.42551	240.55398	945.47607	-606.71357	290.90951	862.89128	-181.50523	285.16968	851.00426	-370.42151	308.49826	869.22740	-187.93521	296.24055	857.80920	-347.06151	
41	0.40000000	252.69648	471.04025	-129.41175	272.82213	353.33796	-156.66327	168.64772	95.13559	-189.75747	118.57481	59.06061	-241.96592	278.42400	39.17746	-158.27583	316.93776	54.32930	-201.24047	491.35205	499.54336	-401.72351	508.52629	387.37749	-365.95015	342.80706	141.97311	-404.00825	288.84424	113.26922	-356.75696	444.90081	66.98307	-429.59596	489.08782	75.35373	-378.63524	253.83542	245.49231	-178.13872	221.14851	351.07582	-101.59147	183.17236	248.53145	-131.03015	466.87380	427.56222	-430.82554	421.66898	316.94755	-450.14364	380.00017	766.45892	-135.88362	375.05177	653.81246	-142.30614	328.87895	631.96736	-97.18230	284.46731	766.69980	-77.25901	277.73667	651.80646	-81.68830	405.98048	777.60627	-434.98439	488.06890	670.72321	-421.16685	316.87888	716.40937	-464.30428	401.80706	605.08862	-443.79720	393.78913	931.04921	-163.31869	205.81040	978.82981	-222.87653	379.38203	923.70071	-405.27452	197.02015	970.52469	-339.05968	304.80609	1411.74048	-190.94048	351.57429	1333.22637	-52.65089	367.93427	1414.16999	-349.81758	419.17912	1331.91985	-185.84177	422.58030	1341.42678	-229.24734	352.79096	1198.86439	-6.95693	257.14214	1015.32859	-70.47289	282.84560	1014.67677	1.03107	349.53003	904.52476	6.13242	399.79682	815.42967	-3.60475	368.48354	799.53747	6.62342	337.55042	1293.94914	-455.33302	208.62916	1129.10432	-449.34681	219.94493	1157.91386	-517.15876	255.20178	1070.26541	-565.88642	272.71948	942.02675	-591.79258	247.44305	944.43706	-606.29149	299.42788	862.04770	-180.87292	294.04680	850.82760	-369.84035	316.91287	868.88023	-187.04735	304.86774	857.50070	-346.23849	
42	0.41000000	256.19485	470.73611	-128.85340	275.27866	352.74001	-156.23598	169.06524	95.43251	-189.86922	118.71562	59.56745	-242.09318	278.46276	39.19883	-158.26246	316.99596	54.27208	-201.20309	503.72043	500.93134	-402.35983	526.99431	390.37584	-366.09879	378.12590	133.83395	-403.86667	325.86085	101.84656	-356.57059	485.11597	66.17491	-428.77831	528.81381	77.85982	-377.59477	255.49104	245.14815	-177.89852	223.50544	350.79333	-101.20583	184.71803	248.63918	-130.82537	483.17883	427.42341	-431.55734	445.45805	313.99243	-450.47848	387.06621	765.02427	-134.90704	380.85823	652.37519	-141.51328	334.20657	631.16529	-96.61413	290.85660	766.02855	-76.17740	283.04785	651.29386	-81.02141	415.41379	778.36747	-435.18272	498.11230	671.97744	-421.38224	326.31581	716.61307	-463.97356	412.22455	605.80537	-444.01072	402.23042	929.86113	-162.17529	214.59739	978.35583	-222.02559	388.62786	923.34184	-404.28630	206.06497	970.06376	-338.20285	314.15871	1411.48916	-192.18294	362.00494	1334.10995	-53.92940	375.51396	1413.30209	-351.65872	428.62092	1332.11674	-187.61251	431.57357	1341.35351	-231.10832	363.80545	1200.01050	-7.55987	268.40824	1015.78169	-69.33212	295.10998	1015.53934	1.78269	362.61835	905.81776	6.25971	413.34096	817.24857	-4.36421	382.15396	800.99021	6.73244	344.10326	1292.93294	-456.41565	216.36596	1127.46796	-448.20584	225.96482	1156.32352	-516.16507	261.27397	1069.06299	-565.71138	280.00440	941.22212	-591.99771	254.45567	943.04589	-605.72389	307.90050	861.12532	-180.15742	302.98447	850.45925	-369.17023	325.28932	868.36824	-186.11469	313.59060	857.00009	-345.38776	
43	0.42000000	259.72833	470.40846	-128.24714	277.74455	352.10736	-155.76033	169.39236	95.79046	-189.89537	118.74107	60.17288	-242.18165	278.49318	39.19720	-158.23035	317.05449	54.21589	-201.14527	515.35827	501.57677	-403.19847	544.67828	393.14017	-366.22414	413.47213	126.63599	-403.95363	362.97291	91.66515	-356.71891	525.00740	66.15648	-427.47016	567.77200	81.21294	-375.95272	257.13383	244.77956	-177.58825	225.88422	350.50614	-100.78064	186.27351	248.75491	-130.58601	499.06904	426.93877	-432.38330	469.08215	311.19907	-450.97229	394.05599	763.51502	-133.81370	386.63049	650.93036	-140.61987	339.50365	630.34549	-95.93428	297.17237	765.33948	-74.95413	288.30448	650.72849	-80.17346	424.67976	778.53179	-435.49815	507.69608	672.39134	-421.88055	335.34258	716.46661	-463.53528	421.92115	605.95618	-444.25345	410.66831	928.59414	-160.93774	223.39870	977.77063	-221.20489	397.93303	922.69640	-403.22925	215.21697	969.47787	-337.39228	323.64717	1411.06011	-193.51638	372.48483	1334.91390	-55.31647	383.22267	1412.21809	-353.58974	438.14624	1332.16923	-189.46224	440.66634	1341.11371	-233.04650	374.80429	1201.09428	-8.23817	279.67891	1016.22065	-68.32223	307.28784	1016.36886	2.42082	375.58394	907.07336	6.33089	426.81980	819.13678	-5.34045	395.68624	802.39846	6.79587	350.86634	1291.62731	-457.51807	224.20993	1125.69030	-447.10901	232.21796	1154.45457	-515.18754	267.56875	1067.52297	-565.46540	287.05063	939.91496	-592.04786	261.56441	941.32036	-605.05435	316.34228	860.12768	-179.35311	311.96638	849.87575	-368.40381	333.63027	867.66141	-185.14148	322.40574	856.28559	-344.52320	
44	0.43000000	263.31625	470.05350	-127.59816	280.24730	351.43083	-155.24610	169.65082	96.21128	-189.88145	118.69260	60.83546	-242.25246	278.51179	39.17532	-158.18818	317.10956	54.15756	-201.07157	526.31649	501.51776	-404.19435	561.54856	395.66544	-366.29482	448.61129	120.50378	-404.23851	399.92291	82.82173	-357.19245	564.31404	66.89103	-425.66762	605.68609	85.30760	-373.76977	258.75858	244.37197	-177.22826	228.31228	350.21177	-100.33509	187.85563	248.87964	-130.33310	514.56114	426.17700	-433.26405	492.43301	308.66312	-451.60247	401.02287	761.93977	-132.60206	392.40570	649.47402	-139.61106	344.78925	629.46615	-95.11030	303.50725	764.64452	-73.65276	293.57585	650.10338	-79.21303	433.80794	778.09036	-435.91046	516.85543	671.95246	-422.65706	344.06659	715.97181	-463.01447	430.93125	605.52989	-444.52505	419.12129	927.27023	-159.60928	232.22623	977.04558	-220.42029	407.24887	921.76632	-402.11806	224.47967	968.74524	-336.62503	333.25473	1410.47993	-194.96333	383.02259	1335.62897	-56.81517	391.07818	1410.91558	-355.62131	447.75023	1332.06940	-191.39201	449.87700	1340.70476	-235.06500	385.83855	1202.09984	-9.00839	290.95406	1016.62937	-67.43731	319.40106	1017.13602	2.94655	388.42221	908.25975	6.34478	440.20909	821.01847	-6.42855	409.07957	803.73549	6.80540	357.85233	1290.01648	-458.64643	232.17294	1123.70177	-446.06393	238.71441	1152.30705	-514.24487	274.07981	1065.63990	-565.15840	294.08983	938.19761	-591.95944	268.74795	939.27426	-604.31895	324.77933	859.05559	-178.46001	320.99070	849.06416	-367.53970	341.95142	866.73982	-184.13004	331.31653	855.34510	-343.65584	
